<?xml version="1.0" encoding="UTF-8" standalone="no"?>
<svg
   xmlns:dc="http://purl.org/dc/elements/1.1/"
   xmlns:cc="http://creativecommons.org/ns#"
   xmlns:rdf="http://www.w3.org/1999/02/22-rdf-syntax-ns#"
   xmlns:svg="http://www.w3.org/2000/svg"
   xmlns="http://www.w3.org/2000/svg"
   xmlns:sodipodi="http://sodipodi.sourceforge.net/DTD/sodipodi-0.dtd"
   xmlns:inkscape="http://www.inkscape.org/namespaces/inkscape"
   id="Icons"
   style="enable-background:new 0 0 32 32;"
   version="1.1"
   viewBox="0 0 10 6"
   xml:space="preserve"
   sodipodi:docname="dropdown.svg"
   inkscape:version="1.0.2 (e86c870879, 2021-01-15, custom)"><metadata
     id="metadata23"><rdf:RDF><cc:Work
         rdf:about=""><dc:format>image/svg+xml</dc:format><dc:type
           rdf:resource="http://purl.org/dc/dcmitype/StillImage" /><dc:title></dc:title></cc:Work></rdf:RDF></metadata><defs
     id="defs21" /><sodipodi:namedview
     pagecolor="#ffffff"
     bordercolor="#666666"
     borderopacity="1"
     objecttolerance="10"
     gridtolerance="10"
     guidetolerance="10"
     inkscape:pageopacity="0"
     inkscape:pageshadow="2"
     inkscape:window-width="1920"
     inkscape:window-height="1137"
     id="namedview19"
     showgrid="false"
     inkscape:zoom="30.3125"
     inkscape:cx="17.242322"
     inkscape:cy="15.012531"
     inkscape:window-x="-8"
     inkscape:window-y="-8"
     inkscape:window-maximized="1"
     inkscape:current-layer="g16"
     inkscape:lockguides="false" /><g
     id="g16"><path
       d="M 5.4,5.9 C 5.5,5.8 5.6,5.8 5.7,5.7 l 4,-4 c 0.4,-0.4 0.4,-1 0,-1.4 -0.4,-0.4 -1,-0.4 -1.4,0 L 6,2.6 c -1.15716,1.040813 -2,0 -2,0 L 1.7,0.3 C 1.3,-0.1 0.7,-0.1 0.3,0.3 0.1,0.5 0,0.7 0,1 0,1.3 0.1,1.5 0.3,1.7 l 4,4 C 4.4,5.8 4.5,5.9 4.6,5.9 4.9,6 5.1,6 5.4,5.9 Z"
       id="path12"
       inkscape:label="path12"
       sodipodi:nodetypes="cssssccssssscc" /></g></svg>
