<?xml version="1.0" encoding="UTF-8" standalone="no"?>
<svg
   xmlns:dc="http://purl.org/dc/elements/1.1/"
   xmlns:cc="http://creativecommons.org/ns#"
   xmlns:rdf="http://www.w3.org/1999/02/22-rdf-syntax-ns#"
   xmlns:svg="http://www.w3.org/2000/svg"
   xmlns="http://www.w3.org/2000/svg"
   xmlns:sodipodi="http://sodipodi.sourceforge.net/DTD/sodipodi-0.dtd"
   xmlns:inkscape="http://www.inkscape.org/namespaces/inkscape"
   id="Icons"
   version="1.1"
   viewBox="0 0 32 32"
   xml:space="preserve"
   sodipodi:docname="earth2.svg"
   inkscape:version="1.0.2 (e86c870879, 2021-01-15, custom)"><metadata
     id="metadata19"><rdf:RDF><cc:Work
         rdf:about=""><dc:format>image/svg+xml</dc:format><dc:type
           rdf:resource="http://purl.org/dc/dcmitype/StillImage" /><dc:title></dc:title></cc:Work></rdf:RDF></metadata><defs
     id="defs17" /><sodipodi:namedview
     pagecolor="#ffffff"
     bordercolor="#666666"
     borderopacity="1"
     objecttolerance="10"
     gridtolerance="10"
     guidetolerance="10"
     inkscape:pageopacity="0"
     inkscape:pageshadow="2"
     inkscape:window-width="1920"
     inkscape:window-height="1137"
     id="namedview15"
     showgrid="false"
     inkscape:zoom="10.717087"
     inkscape:cx="2.7625703"
     inkscape:cy="31.633625"
     inkscape:window-x="-8"
     inkscape:window-y="-8"
     inkscape:window-maximized="1"
     inkscape:current-layer="Icons"
     inkscape:document-rotation="0" /><path
     id="circle4"
     d="m 16.0001,2.0000944 c -7.6937764,0 -13.9534034,6.237959 -13.9960944,13.9218746 a 1,1 0 0 0 -0.002,0.02148 c -8e-5,0.01909 -0.002,0.03755 -0.002,0.05665 a 1,1 0 0 0 0.0039,0.08984 c 0.04904,7.678495 6.306258,13.91016 13.9960904,13.91016 7.693775,0 13.953401,-6.237959 13.996093,-13.921875 4e-5,-0.0073 0.0019,-0.01423 0.002,-0.02148 a 1,1 0 0 0 0.0019,-0.05664 c 0,-0.02834 -0.0037,-0.05569 -0.0039,-0.08398 a 1,1 0 0 0 0,-0.0059 C 29.947149,8.2317594 23.68993,2.0000944 16.0001,2.0000944 Z m 0,2 c 0.478762,0 0.948175,0.03562 1.412109,0.08984 0.788188,1.741144 1.36483,3.428029 1.767579,5.046875 -1.738802,0.440712 -3.789631,0.596332 -6.115235,0.002 0.391622,-1.627456 0.957523,-3.325134 1.738281,-5.078125 0.393984,-0.03885 0.792874,-0.06054 1.197266,-0.06054 z m -3.566406,0.53711 c -0.533446,1.354459 -0.951126,2.67826 -1.263672,3.964843 -0.958816,-0.397185 -1.9533134,-0.920447 -2.9843764,-1.607422 1.226324,-1.052814 2.6643744,-1.866925 4.2480484,-2.357421 z m 7.378906,0.08984 c 1.507335,0.503575 2.878075,1.296147 4.05078,2.314452 -0.617494,0.455877 -1.525751,1.0442 -2.791014,1.572266 C 20.756743,7.2513654 20.340994,5.9539334 19.8126,4.6270444 Z M 6.7579116,8.3379854 c 1.36927,0.942313 2.710019,1.639456 4.0058604,2.1347646 -0.269598,1.582573 -0.380244,3.090849 -0.390625,4.527344 H 4.0508806 c 0.207722,-2.523756 1.184056,-4.825745 2.707031,-6.6621086 z M 25.27549,8.3790004 c 1.503804,1.8295736 2.467641,4.1159966 2.673828,6.6210936 h -6.021484 c -0.021,-1.42739 -0.150365,-2.929099 -0.427734,-4.498047 1.763387,-0.6897886 3.011909,-1.5372176 3.77539,-2.1230466 z M 12.670022,11.070406 c 2.599882,0.639626 4.950103,0.500199 6.925781,0.01758 0.235536,1.366595 0.339873,2.668425 0.365235,3.912109 h -7.636719 c 0.01571,-1.246472 0.119269,-2.557392 0.345703,-3.929689 z m -8.6191414,5.929688 h 6.3750004 c 0.0091,0.142136 0.01038,0.291424 0.02149,0.431641 0.114454,1.444964 0.335642,2.780318 0.611328,4.001953 -1.3880434,0.494355 -2.8282464,1.222784 -4.2988344,2.230468 -1.523978,-1.836715 -2.501181,-4.139332 -2.708984,-6.664062 z m 8.3281254,0 h 7.544922 c -0.08126,1.413313 -0.263227,2.726941 -0.517578,3.914062 -1.873743,-0.430265 -4.068377,-0.561381 -6.482422,-0.02148 -0.26109,-1.178235 -0.45305,-2.485326 -0.544922,-3.892582 z m 9.494141,0 h 6.076171 c -0.206516,2.509089 -1.171789,4.799822 -2.679688,6.630859 -0.794181,-0.597332 -2.128061,-1.47633 -3.994139,-2.167968 0.295613,-1.349057 0.505702,-2.850565 0.597656,-4.462891 z m -6.228516,5.513672 c 1.186522,-0.04352 2.273279,0.101273 3.271485,0.332031 -0.829187,2.790102 -1.833694,4.53458 -2.197266,5.117188 -0.239162,0.01414 -0.47597,0.03711 -0.71875,0.03711 -0.09564,0 -0.188102,-0.01146 -0.283203,-0.01367 -0.121161,-0.180832 -1.327541,-2.035857 -2.287109,-5.1875 0.767838,-0.16883 1.507506,-0.259214 2.214843,-0.285157 z m -4.066406,0.83789 c 0.560021,1.859619 1.188211,3.329907 1.691406,4.326172 -1.91119,-0.443577 -3.6442624,-1.338223 -5.0820314,-2.572265 1.174205,-0.77796 2.3074734,-1.348021 3.3906254,-1.753907 z m 9.201172,0.04883 c 1.405398,0.541766 2.406695,1.182253 3.076171,1.666015 -1.333533,1.155812 -2.924214,2.016816 -4.677734,2.496094 0.496889,-1.019102 1.081246,-2.391082 1.601563,-4.162109 z" /></svg>
