<?xml version="1.0" encoding="UTF-8" standalone="no"?>
<svg
   xmlns:dc="http://purl.org/dc/elements/1.1/"
   xmlns:cc="http://creativecommons.org/ns#"
   xmlns:rdf="http://www.w3.org/1999/02/22-rdf-syntax-ns#"
   xmlns:svg="http://www.w3.org/2000/svg"
   xmlns="http://www.w3.org/2000/svg"
   xmlns:sodipodi="http://sodipodi.sourceforge.net/DTD/sodipodi-0.dtd"
   xmlns:inkscape="http://www.inkscape.org/namespaces/inkscape"
   id="Icons"
   style="enable-background:new 0 0 32 32;"
   version="1.1"
   viewBox="0 0 32 32"
   xml:space="preserve"
   sodipodi:docname="earth.svg"
   inkscape:version="1.0.2 (e86c870879, 2021-01-15, custom)"><metadata
     id="metadata9"><rdf:RDF><cc:Work
         rdf:about=""><dc:format>image/svg+xml</dc:format><dc:type
           rdf:resource="http://purl.org/dc/dcmitype/StillImage" /></cc:Work></rdf:RDF></metadata><defs
     id="defs7" /><sodipodi:namedview
     pagecolor="#ffffff"
     bordercolor="#666666"
     borderopacity="1"
     objecttolerance="10"
     gridtolerance="10"
     guidetolerance="10"
     inkscape:pageopacity="0"
     inkscape:pageshadow="2"
     inkscape:window-width="1920"
     inkscape:window-height="1137"
     id="namedview5"
     showgrid="false"
     inkscape:zoom="21.434174"
     inkscape:cx="12.634337"
     inkscape:cy="16.982057"
     inkscape:window-x="-8"
     inkscape:window-y="-8"
     inkscape:window-maximized="1"
     inkscape:current-layer="Icons"
     inkscape:document-rotation="0" /><path
     id="earth"
     d="M 15.97461,3.0000062 A 13,13 0 0 0 3,16.000006 a 13,13 0 0 0 13,13 13,13 0 0 0 13,-13 13,13 0 0 0 -13,-12.9999998 13,13 0 0 0 -0.02539,0 z m 0.02539,2.6 a 10.4,10.4 0 0 1 1.691015,0.1396485 c 0.442158,1.2643339 0.793072,2.5235181 1.048634,3.7654296 -1.552418,0.3644064 -3.394464,0.4878098 -5.504688,0.053321 0.253196,-1.2579615 0.599508,-2.5342321 1.043554,-3.816211 A 10.4,10.4 0 0 1 16,5.6000062 Z m 4.745508,1.1451173 a 10.4,10.4 0 0 1 1.828125,1.1958983 C 22.195406,8.173619 21.760812,8.4195424 21.230469,8.6621157 21.092903,8.0284127 20.926202,7.3869176 20.745508,6.7451235 Z M 11.23164,6.7578245 C 11.04106,7.442332 10.870747,8.1242616 10.728906,8.7992307 10.233845,8.6032508 9.731555,8.3822996 9.213086,8.1187562 A 10.4,10.4 0 0 1 11.23164,6.7578187 Z m 13.159961,3.1001952 a 10.4,10.4 0 0 1 1.891602,4.5830073 h -4.311328 c -0.04886,-1.022145 -0.140387,-2.073735 -0.286914,-3.150982 1.139104,-0.467649 2.034468,-0.982995 2.70664,-1.432031 z M 7.4382813,10.099225 c 0.9708197,0.527414 1.9300197,0.984945 2.8539057,1.315234 -0.134475,1.033559 -0.224192,2.044778 -0.26914,3.026563 H 5.7167969 a 10.4,10.4 0 0 1 1.7214844,-4.341797 z m 11.7152337,1.975391 c 0.09758,0.804898 0.166717,1.59432 0.205664,2.366406 h -6.723437 c 0.03695,-0.765244 0.103701,-1.548157 0.198047,-2.346094 2.370987,0.464184 4.51085,0.371712 6.319726,-0.02031 z M 5.6533203,17.041022 H 9.984961 c 0.02336,1.082365 0.09088,2.106115 0.185351,3.069726 -0.977269,0.350476 -1.976753,0.813356 -2.988476,1.399024 a 10.4,10.4 0 0 1 -1.5285157,-4.46875 z m 6.9443357,0 h 6.804688 c -0.01916,0.886944 -0.07097,1.725576 -0.142188,2.528907 -0.706121,-0.1662 -1.446764,-0.305512 -2.244531,-0.375782 -1.324227,-0.116636 -2.768594,-0.06066 -4.285938,0.220898 -0.06553,-0.756507 -0.112359,-1.543943 -0.132031,-2.374023 z m 9.419922,0 h 4.329101 a 10.4,10.4 0 0 1 -1.749414,4.808984 c -0.656651,-0.430081 -1.560678,-0.955652 -2.785351,-1.4625 0.107198,-1.042299 0.182435,-2.161867 0.205664,-3.346484 z m -6.560938,4.669336 c 1.269452,-0.01014 2.42716,0.177901 3.473438,0.449414 -0.286847,1.819936 -0.614766,3.204587 -0.848047,4.029493 A 10.4,10.4 0 0 1 16,26.400006 10.4,10.4 0 0 1 13.935742,26.191804 c -0.236833,-0.828685 -0.58362,-2.292822 -0.881055,-4.212306 0.831729,-0.165736 1.640095,-0.263046 2.401953,-0.26914 z m -4.92578,1.035937 c 0.14814,0.899118 0.297618,1.677767 0.454491,2.363867 A 10.4,10.4 0 0 1 8.855078,23.553718 C 9.42411,23.240805 9.982873,22.969646 10.53086,22.746295 Z m 10.905273,0.312306 c 0.569602,0.265033 1.043003,0.519142 1.426953,0.754101 a 10.4,10.4 0 0 1 -1.830664,1.289843 c 0.13821,-0.610586 0.271525,-1.268274 0.403711,-2.043944 z" /></svg>
