<?xml version="1.0" ?><svg id="Icons" style="enable-background:new 0 0 32 32;" version="1.1" viewBox="0 0 32 32" xml:space="preserve" xmlns="http://www.w3.org/2000/svg" xmlns:xlink="http://www.w3.org/1999/xlink"><g><path d="M10.7,8.3c-0.4-0.4-1-0.4-1.4,0l-7,7c-0.4,0.4-0.4,1,0,1.4l7,7C9.5,23.9,9.7,24,10,24s0.5-0.1,0.7-0.3c0.4-0.4,0.4-1,0-1.4   L4.4,16l6.3-6.3C11.1,9.3,11.1,8.7,10.7,8.3z"/><path d="M29.7,15.3l-7-7c-0.4-0.4-1-0.4-1.4,0s-0.4,1,0,1.4l6.3,6.3l-6.3,6.3c-0.4,0.4-0.4,1,0,1.4c0.2,0.2,0.5,0.3,0.7,0.3   s0.5-0.1,0.7-0.3l7-7C30.1,16.3,30.1,15.7,29.7,15.3z"/><path d="M20.3,3.1c-0.5-0.2-1.1,0.1-1.3,0.6l-8,24c-0.2,0.5,0.1,1.1,0.6,1.3c0.1,0,0.2,0.1,0.3,0.1c0.4,0,0.8-0.3,0.9-0.7l8-24   C21.1,3.8,20.8,3.2,20.3,3.1z"/></g></svg>