<?xml version="1.0" ?><svg id="Icons" style="enable-background:new 0 0 32 32;" version="1.1" viewBox="0 0 32 32" xml:space="preserve" xmlns="http://www.w3.org/2000/svg" xmlns:xlink="http://www.w3.org/1999/xlink"><g><path d="M15,3H7C6.4,3,6,3.4,6,4s0.4,1,1,1h8c0.6,0,1-0.4,1-1S15.6,3,15,3z"/><path d="M15,9H3c-0.6,0-1,0.4-1,1s0.4,1,1,1h12c0.6,0,1-0.4,1-1S15.6,9,15,9z"/><path d="M15,15H7c-0.6,0-1,0.4-1,1s0.4,1,1,1h8c0.6,0,1-0.4,1-1S15.6,15,15,15z"/><path d="M15,21H3c-0.6,0-1,0.4-1,1s0.4,1,1,1h12c0.6,0,1-0.4,1-1S15.6,21,15,21z"/><path d="M15,27H7c-0.6,0-1,0.4-1,1s0.4,1,1,1h8c0.6,0,1-0.4,1-1S15.6,27,15,27z"/><path d="M29,15h-3.6l2.3-2.3c0.4-0.4,0.4-1,0-1.4s-1-0.4-1.4,0l-4,4c-0.1,0.1-0.2,0.2-0.2,0.3c-0.1,0.2-0.1,0.5,0,0.8   c0.1,0.1,0.1,0.2,0.2,0.3l4,4c0.2,0.2,0.5,0.3,0.7,0.3s0.5-0.1,0.7-0.3c0.4-0.4,0.4-1,0-1.4L25.4,17H29c0.6,0,1-0.4,1-1   S29.6,15,29,15z"/><path d="M19,2c-0.6,0-1,0.4-1,1v26c0,0.6,0.4,1,1,1s1-0.4,1-1V3C20,2.4,19.6,2,19,2z"/></g></svg>