<?xml version="1.0" ?><svg id="Icons" style="enable-background:new 0 0 32 32;" version="1.1" viewBox="0 0 32 32" xml:space="preserve" xmlns="http://www.w3.org/2000/svg" xmlns:xlink="http://www.w3.org/1999/xlink"><g><path d="M8,5h16c0.6,0,1-0.4,1-1s-0.4-1-1-1H8C7.4,3,7,3.4,7,4S7.4,5,8,5z"/><path d="M3,11h26c0.6,0,1-0.4,1-1s-0.4-1-1-1H3c-0.6,0-1,0.4-1,1S2.4,11,3,11z"/><path d="M8,15c-0.6,0-1,0.4-1,1s0.4,1,1,1h16c0.6,0,1-0.4,1-1s-0.4-1-1-1H8z"/><path d="M29,21H3c-0.6,0-1,0.4-1,1s0.4,1,1,1h26c0.6,0,1-0.4,1-1S29.6,21,29,21z"/><path d="M24,27H8c-0.6,0-1,0.4-1,1s0.4,1,1,1h16c0.6,0,1-0.4,1-1S24.6,27,24,27z"/></g></svg>