<?xml version="1.0" encoding="UTF-8" standalone="no"?>
<svg
   xmlns:dc="http://purl.org/dc/elements/1.1/"
   xmlns:cc="http://creativecommons.org/ns#"
   xmlns:rdf="http://www.w3.org/1999/02/22-rdf-syntax-ns#"
   xmlns:svg="http://www.w3.org/2000/svg"
   xmlns="http://www.w3.org/2000/svg"
   xmlns:sodipodi="http://sodipodi.sourceforge.net/DTD/sodipodi-0.dtd"
   xmlns:inkscape="http://www.inkscape.org/namespaces/inkscape"
   id="Icons"
   style="enable-background:new 0 0 32 32;"
   version="1.1"
   viewBox="0 0 32 32"
   xml:space="preserve"
   sodipodi:docname="iconfinder_Text_Editing_marker_color_colour_6646336.svg"
   inkscape:version="1.0.2 (e86c870879, 2021-01-15, custom)"><metadata
     id="metadata17"><rdf:RDF><cc:Work
         rdf:about=""><dc:format>image/svg+xml</dc:format><dc:type
           rdf:resource="http://purl.org/dc/dcmitype/StillImage" /></cc:Work></rdf:RDF></metadata><defs
     id="defs15" /><sodipodi:namedview
     pagecolor="#ffffff"
     bordercolor="#666666"
     borderopacity="1"
     objecttolerance="10"
     gridtolerance="10"
     guidetolerance="10"
     inkscape:pageopacity="0"
     inkscape:pageshadow="2"
     inkscape:window-width="1920"
     inkscape:window-height="1137"
     id="namedview13"
     showgrid="false"
     inkscape:zoom="30.3125"
     inkscape:cx="16"
     inkscape:cy="14.680412"
     inkscape:window-x="-8"
     inkscape:window-y="-8"
     inkscape:window-maximized="1"
     inkscape:current-layer="Icons" /><g
     id="g6"
     transform="translate(-1,-1)"><path
       d="M 17.6,6 6.9,16.7 C 6.7,16.9 6.6,17.1 6.6,17.3 L 6,23.9 c 0,0.3 0.1,0.6 0.3,0.8 0.2,0.2 0.4,0.3 0.7,0.3 0,0 0.1,0 0.1,0 l 6.6,-0.6 c 0.2,0 0.5,-0.1 0.6,-0.3 L 25,13.4 Z"
       id="path2" /><path
       d="m 26.4,12 1.4,-1.4 C 29,9.4 28.9,7.5 27.7,6.3 l -3,-3 C 24.1,2.7 23.4,2.4 22.5,2.4 21.7,2.4 20.9,2.7 20.3,3.3 L 19,4.6 Z"
       id="path4" /></g><g
     id="g10"><path
       d="M 28,30.053 H 4 C 3.4,30.053 3,29.2424 3,28.0265 3,26.8106 3.4,26 4,26 h 24 c 0.6,0 1,0.8106 1,2.0265 0,1.2159 -0.4,2.0265 -1,2.0265 z"
       id="path8"
       style="stroke-width:1.42355" /></g></svg>
