<?xml version="1.0" ?><svg id="Icons" style="enable-background:new 0 0 32 32;" version="1.1" viewBox="0 0 32 32" xml:space="preserve" xmlns="http://www.w3.org/2000/svg" xmlns:xlink="http://www.w3.org/1999/xlink"><g><circle cx="19" cy="14" r="2"/><path d="M29,22h-4V11h4c0.6,0,1-0.4,1-1s-0.4-1-1-1h-4V5c0-0.6-0.4-1-1-1s-1,0.4-1,1v4H9V5c0-0.6-0.4-1-1-1S7,4.4,7,5v4H3   c-0.6,0-1,0.4-1,1s0.4,1,1,1h4v11H3c-0.6,0-1,0.4-1,1s0.4,1,1,1h4v4c0,0.6,0.4,1,1,1s1-0.4,1-1v-4h14v4c0,0.6,0.4,1,1,1s1-0.4,1-1   v-4h4c0.6,0,1-0.4,1-1S29.6,22,29,22z M23,11v4.5l-4,3.2l-3.4-2.5c-0.4-0.3-0.9-0.3-1.3,0L9,20.8V11H23z"/></g></svg>