<?xml version="1.0" encoding="UTF-8" standalone="no"?>
<svg
   xmlns:dc="http://purl.org/dc/elements/1.1/"
   xmlns:cc="http://creativecommons.org/ns#"
   xmlns:rdf="http://www.w3.org/1999/02/22-rdf-syntax-ns#"
   xmlns:svg="http://www.w3.org/2000/svg"
   xmlns="http://www.w3.org/2000/svg"
   xmlns:sodipodi="http://sodipodi.sourceforge.net/DTD/sodipodi-0.dtd"
   xmlns:inkscape="http://www.inkscape.org/namespaces/inkscape"
   id="Icons"
   style="enable-background:new 0 0 32 32;"
   version="1.1"
   viewBox="0 0 32 32"
   xml:space="preserve"
   sodipodi:docname="iconfinder_Text_Editing_indent2_6646350.svg"
   inkscape:version="1.0.2 (e86c870879, 2021-01-15, custom)"><metadata
     id="metadata23"><rdf:RDF><cc:Work
         rdf:about=""><dc:format>image/svg+xml</dc:format><dc:type
           rdf:resource="http://purl.org/dc/dcmitype/StillImage" /><dc:title></dc:title></cc:Work></rdf:RDF></metadata><defs
     id="defs21" /><sodipodi:namedview
     pagecolor="#ffffff"
     bordercolor="#666666"
     borderopacity="1"
     objecttolerance="10"
     gridtolerance="10"
     guidetolerance="10"
     inkscape:pageopacity="0"
     inkscape:pageshadow="2"
     inkscape:window-width="734"
     inkscape:window-height="480"
     id="namedview19"
     showgrid="false"
     inkscape:zoom="30.3125"
     inkscape:cx="16"
     inkscape:cy="16"
     inkscape:window-x="216"
     inkscape:window-y="122"
     inkscape:window-maximized="0"
     inkscape:current-layer="g16" /><g
     id="g16"><path
       d="m 25,27 h -8 c -0.6,0 -1,0.4 -1,1 0,0.6 0.4,1 1,1 h 8 c 0.6,0 1,-0.4 1,-1 0,-0.6 -0.4,-1 -1,-1 z"
       id="path2" /><path
       d="M 29,21 H 17 c -0.6,0 -1,0.4 -1,1 0,0.6 0.4,1 1,1 h 12 c 0.6,0 1,-0.4 1,-1 0,-0.6 -0.4,-1 -1,-1 z"
       id="path4" /><path
       d="m 17,17 h 8 c 0.6,0 1,-0.4 1,-1 0,-0.6 -0.4,-1 -1,-1 h -8 c -0.6,0 -1,0.4 -1,1 0,0.6 0.4,1 1,1 z"
       id="path6" /><path
       d="m 17,11 h 12 c 0.6,0 1,-0.4 1,-1 C 30,9.4 29.6,9 29,9 H 17 c -0.6,0 -1,0.4 -1,1 0,0.6 0.4,1 1,1 z"
       id="path8" /><path
       d="m 17,5 h 8 C 25.6,5 26,4.6 26,4 26,3.4 25.6,3 25,3 h -8 c -0.6,0 -1,0.4 -1,1 0,0.6 0.4,1 1,1 z"
       id="path10" /><path
       d="m 2.075,15.6 c 0.1,-0.1 0.1,-0.2 0.2,-0.3 l 4,-4 c 0.4,-0.4 1,-0.4 1.4,0 0.4,0.4 0.4,1 0,1.4 l -2.3,2.3 h 3.6 c 0.6,0 1,0.4 1,1 0,0.6 -0.4,1 -1,1 h -3.6 l 2.3,2.3 c 0.4,0.4 0.4,1 0,1.4 -0.2,0.2 -0.4,0.3 -0.7,0.3 -0.3,0 -0.5,-0.1 -0.7,-0.3 l -4,-4 c -0.1,-0.1 -0.2,-0.2 -0.2,-0.3 -0.1,-0.3 -0.1,-0.5 0,-0.8 z"
       id="path12"
       style="stroke-width:1" /><path
       d="m 13,2 c -0.6,0 -1,0.4 -1,1 v 26 c 0,0.6 0.4,1 1,1 0.6,0 1,-0.4 1,-1 V 3 C 14,2.4 13.6,2 13,2 Z"
       id="path14" /></g></svg>
