<?xml version="1.0" encoding="UTF-8" standalone="no"?>
<svg
   xmlns:dc="http://purl.org/dc/elements/1.1/"
   xmlns:cc="http://creativecommons.org/ns#"
   xmlns:rdf="http://www.w3.org/1999/02/22-rdf-syntax-ns#"
   xmlns:svg="http://www.w3.org/2000/svg"
   xmlns="http://www.w3.org/2000/svg"
   xmlns:sodipodi="http://sodipodi.sourceforge.net/DTD/sodipodi-0.dtd"
   xmlns:inkscape="http://www.inkscape.org/namespaces/inkscape"
   id="Icons"
   style="enable-background:new 0 0 32 32;"
   version="1.1"
   viewBox="0 0 32 32"
   xml:space="preserve"
   sodipodi:docname="iconfinder_Text_Editing_text_color_colour_6646333.svg"
   inkscape:version="1.0.2 (e86c870879, 2021-01-15, custom)"><metadata
     id="metadata13"><rdf:RDF><cc:Work
         rdf:about=""><dc:format>image/svg+xml</dc:format><dc:type
           rdf:resource="http://purl.org/dc/dcmitype/StillImage" /></cc:Work></rdf:RDF></metadata><defs
     id="defs11" /><sodipodi:namedview
     pagecolor="#ffffff"
     bordercolor="#666666"
     borderopacity="1"
     objecttolerance="10"
     gridtolerance="10"
     guidetolerance="10"
     inkscape:pageopacity="0"
     inkscape:pageshadow="2"
     inkscape:window-width="1920"
     inkscape:window-height="1137"
     id="namedview9"
     showgrid="false"
     inkscape:zoom="30.3125"
     inkscape:cx="16"
     inkscape:cy="17.319588"
     inkscape:window-x="-8"
     inkscape:window-y="-8"
     inkscape:window-maximized="1"
     inkscape:current-layer="g6" /><g
     id="g6"><path
       d="M 29,26 H 3 c -0.6,0 -1,0.8106 -1,2.0265 0,1.2159 0.4,2.0265 1,2.0265 h 26 c 0.6,0 1,-0.8106 1,-2.0265 C 30,26.8106 29.6,26 29,26 Z"
       id="path2"
       style="stroke-width:1.42355" /><path
       d="M5,24h4c0.6,0,1-0.4,1-1s-0.4-1-1-1H8.6l1.9-4h11.1l1.9,4H23c-0.6,0-1,0.4-1,1s0.4,1,1,1h4c0.6,0,1-0.4,1-1s-0.4-1-1-1   h-1.4L16.9,3.6C16.7,3.2,16.4,3,16,3s-0.7,0.2-0.9,0.6L6.4,22H5c-0.6,0-1,0.4-1,1S4.4,24,5,24z M16,6.3l4.6,9.7h-9.2L16,6.3z"
       id="path4" /></g></svg>
