<?xml version="1.0" ?><svg id="Icons" style="enable-background:new 0 0 32 32;" version="1.1" viewBox="0 0 32 32" xml:space="preserve" xmlns="http://www.w3.org/2000/svg" xmlns:xlink="http://www.w3.org/1999/xlink"><g><path d="M25,27h-8c-0.6,0-1,0.4-1,1s0.4,1,1,1h8c0.6,0,1-0.4,1-1S25.6,27,25,27z"/><path d="M29,21H17c-0.6,0-1,0.4-1,1s0.4,1,1,1h12c0.6,0,1-0.4,1-1S29.6,21,29,21z"/><path d="M17,17h8c0.6,0,1-0.4,1-1s-0.4-1-1-1h-8c-0.6,0-1,0.4-1,1S16.4,17,17,17z"/><path d="M17,11h12c0.6,0,1-0.4,1-1s-0.4-1-1-1H17c-0.6,0-1,0.4-1,1S16.4,11,17,11z"/><path d="M17,5h8c0.6,0,1-0.4,1-1s-0.4-1-1-1h-8c-0.6,0-1,0.4-1,1S16.4,5,17,5z"/><path d="M9.9,15.6c-0.1-0.1-0.1-0.2-0.2-0.3l-4-4c-0.4-0.4-1-0.4-1.4,0s-0.4,1,0,1.4L6.6,15H3c-0.6,0-1,0.4-1,1s0.4,1,1,1h3.6   l-2.3,2.3c-0.4,0.4-0.4,1,0,1.4C4.5,20.9,4.7,21,5,21s0.5-0.1,0.7-0.3l4-4c0.1-0.1,0.2-0.2,0.2-0.3C10,16.1,10,15.9,9.9,15.6z"/><path d="M13,2c-0.6,0-1,0.4-1,1v26c0,0.6,0.4,1,1,1s1-0.4,1-1V3C14,2.4,13.6,2,13,2z"/></g></svg>