<?xml version="1.0" encoding="UTF-8" standalone="no"?>
<svg
   xmlns:dc="http://purl.org/dc/elements/1.1/"
   xmlns:cc="http://creativecommons.org/ns#"
   xmlns:rdf="http://www.w3.org/1999/02/22-rdf-syntax-ns#"
   xmlns:svg="http://www.w3.org/2000/svg"
   xmlns="http://www.w3.org/2000/svg"
   xmlns:sodipodi="http://sodipodi.sourceforge.net/DTD/sodipodi-0.dtd"
   xmlns:inkscape="http://www.inkscape.org/namespaces/inkscape"
   id="Icons"
   style="enable-background:new 0 0 32 32;"
   version="1.1"
   viewBox="0 0 32 32"
   xml:space="preserve"
   sodipodi:docname="iconfinder_6593764_and_file_files_folders_icon.svg"
   inkscape:version="1.0.2 (e86c870879, 2021-01-15, custom)"><metadata
     id="metadata11"><rdf:RDF><cc:Work
         rdf:about=""><dc:format>image/svg+xml</dc:format><dc:type
           rdf:resource="http://purl.org/dc/dcmitype/StillImage" /></cc:Work></rdf:RDF></metadata><defs
     id="defs9" /><sodipodi:namedview
     pagecolor="#ffffff"
     bordercolor="#666666"
     borderopacity="1"
     objecttolerance="10"
     gridtolerance="10"
     guidetolerance="10"
     inkscape:pageopacity="0"
     inkscape:pageshadow="2"
     inkscape:window-width="1920"
     inkscape:window-height="1137"
     id="namedview7"
     showgrid="false"
     inkscape:zoom="30.3125"
     inkscape:cx="16"
     inkscape:cy="16"
     inkscape:window-x="-8"
     inkscape:window-y="-8"
     inkscape:window-maximized="1"
     inkscape:current-layer="Icons" /><style
     type="text/css"
     id="style2">
	.st0{fill:none;stroke:#000000;stroke-width:2;stroke-linecap:round;stroke-linejoin:round;stroke-miterlimit:10;}
	.st1{fill:none;stroke:#000000;stroke-width:2;stroke-linejoin:round;stroke-miterlimit:10;}
</style><path
     d="M 7 2 A 1.0001 1.0001 0 0 0 6 3 L 6 29 A 1.0001 1.0001 0 0 0 7 30 L 25 30 A 1.0001 1.0001 0 0 0 26 29 L 26 9 A 1 1 0 0 0 26 8.9902344 A 1.0001 1.0001 0 0 0 25.996094 8.9179688 A 1.0001 1.0001 0 0 0 25.996094 8.9160156 A 1 1 0 0 0 25.996094 8.9140625 A 1.0001 1.0001 0 0 0 25.990234 8.8652344 A 1 1 0 0 0 25.980469 8.8066406 A 1 1 0 0 0 25.960938 8.7285156 A 1 1 0 0 0 25.960938 8.7246094 A 1.0001 1.0001 0 0 0 25.943359 8.6699219 A 1 1 0 0 0 25.933594 8.6445312 A 1.0001 1.0001 0 0 0 25.912109 8.5917969 A 1.0001 1.0001 0 0 0 25.880859 8.5273438 A 1.0001 1.0001 0 0 0 25.875 8.515625 A 1 1 0 0 0 25.861328 8.4921875 A 1.0001 1.0001 0 0 0 25.832031 8.4453125 A 1 1 0 0 0 25.828125 8.4394531 A 1.0001 1.0001 0 0 0 25.78125 8.3769531 A 1.0001 1.0001 0 0 0 25.726562 8.3125 A 1.0001 1.0001 0 0 0 25.707031 8.2929688 L 25.666016 8.2539062 L 19.726562 2.3125 A 1 1 0 0 0 19.707031 2.2929688 A 1.0001 1.0001 0 0 0 19.697266 2.2832031 A 1 1 0 0 0 19.644531 2.2363281 A 1.0001 1.0001 0 0 0 19.601562 2.2011719 A 1 1 0 0 0 19.578125 2.1835938 A 1.0001 1.0001 0 0 0 19.533203 2.1542969 A 1 1 0 0 0 19.507812 2.1386719 A 1.0001 1.0001 0 0 0 19.490234 2.1289062 A 1 1 0 0 0 19.433594 2.0996094 A 1.0001 1.0001 0 0 0 19.382812 2.0761719 A 1 1 0 0 0 19.357422 2.0664062 A 1.0001 1.0001 0 0 0 19.349609 2.0644531 A 1 1 0 0 0 19.285156 2.0410156 A 1 1 0 0 0 19.277344 2.0390625 A 1.0001 1.0001 0 0 0 19.222656 2.0253906 A 1 1 0 0 0 19.195312 2.0195312 A 1.0001 1.0001 0 0 0 19.140625 2.0097656 A 1 1 0 0 0 19.130859 2.0097656 A 1.0001 1.0001 0 0 0 19.056641 2.0019531 A 1 1 0 0 0 19 2 L 7 2 z M 8 4 L 18 4 L 18 9 A 1.0001 1.0001 0 0 0 19 10 L 24 10 L 24 28 L 8 28 L 8 4 z M 20 5.4140625 L 22.585938 8 L 20 8 L 20 5.4140625 z "
     id="polyline4" /></svg>
