<?xml version="1.0" encoding="UTF-8" standalone="no"?>
<svg
   xmlns:dc="http://purl.org/dc/elements/1.1/"
   xmlns:cc="http://creativecommons.org/ns#"
   xmlns:rdf="http://www.w3.org/1999/02/22-rdf-syntax-ns#"
   xmlns:svg="http://www.w3.org/2000/svg"
   xmlns="http://www.w3.org/2000/svg"
   xmlns:sodipodi="http://sodipodi.sourceforge.net/DTD/sodipodi-0.dtd"
   xmlns:inkscape="http://www.inkscape.org/namespaces/inkscape"
   id="Icons"
   style="enable-background:new 0 0 32 32;"
   version="1.1"
   viewBox="0 0 32 32"
   xml:space="preserve"
   sodipodi:docname="linkIcon.svg"
   inkscape:version="1.0.2 (e86c870879, 2021-01-15, custom)"><metadata
     id="metadata9"><rdf:RDF><cc:Work
         rdf:about=""><dc:format>image/svg+xml</dc:format><dc:type
           rdf:resource="http://purl.org/dc/dcmitype/StillImage" /></cc:Work></rdf:RDF></metadata><defs
     id="defs7" /><sodipodi:namedview
     pagecolor="#ffffff"
     bordercolor="#666666"
     borderopacity="1"
     objecttolerance="10"
     gridtolerance="10"
     guidetolerance="10"
     inkscape:pageopacity="0"
     inkscape:pageshadow="2"
     inkscape:window-width="1920"
     inkscape:window-height="1137"
     id="namedview5"
     showgrid="false"
     inkscape:zoom="5.3585435"
     inkscape:cx="20.018589"
     inkscape:cy="15.034725"
     inkscape:window-x="-8"
     inkscape:window-y="-8"
     inkscape:window-maximized="1"
     inkscape:current-layer="Icons"
     inkscape:document-rotation="0" /><g
     id="earth"
     transform="translate(-4)"><path
       id="path217"
       d="M 15.480469,2 A 10,10 0 0 0 5.5,12 10,10 0 0 0 15.5,22 10,10 0 0 0 25.5,12 10,10 0 0 0 15.5,2 10,10 0 0 0 15.48047,2 Z M 15.5,4 a 8,8 0 0 1 8,8 8,8 0 0 1 -8,8 8,8 0 0 1 -8,-8 8,8 0 0 1 8,-8 z" /><rect
       style="fill:#000000"
       id="rect234"
       width="17.121649"
       height="1"
       x="7.0268044"
       y="11.5" /><path
       style="display:inline;fill:none;stroke:#000000;stroke-linecap:butt;stroke-linejoin:miter;stroke-opacity:1"
       d="M 13.436487,3.1725039 C 10.077365,12.036853 13.15656,20.807893 13.15656,20.807893"
       id="path240" /><path
       style="display:inline;fill:none;stroke:#000000;stroke-linecap:butt;stroke-linejoin:miter;stroke-opacity:1"
       d="m 17.563011,3.2307148 c 3.359122,8.8643492 0.279927,17.6353892 0.279927,17.6353892"
       id="path240-5" /><path
       style="fill:none;stroke:#000000;stroke-linecap:butt;stroke-linejoin:miter;stroke-opacity:1"
       d="M 8.5540703,6.1201425 C 16.592587,11.11949 22.270484,5.7935612 22.270484,5.7935612"
       id="path262"
       sodipodi:nodetypes="cc" /><path
       style="fill:none;stroke:#000000;stroke-linecap:butt;stroke-linejoin:miter;stroke-opacity:1"
       d="M 8.5540702,17.4973 C 16.064753,12.596923 22.270485,17.823882 22.270485,17.823882"
       id="path262-9"
       sodipodi:nodetypes="cc" /></g><g
     id="g300"
     transform="translate(3.5457396,0.93308937)"
     style="display:inline"><path
       id="rect292"
       style="fill:#ffffff;stroke-width:0.938639"
       d="M 2.5966409,20.489482 C 3.5871103,18.68677 4.9883933,17.481839 7.3079924,17.394118 14.022498,17.140192 27.432827,17.355461 27.432827,17.355461 V 29.443805 H 2.3327234 c 0,0 -1.1745424,-6.336243 0.2639175,-8.954323 z"
       sodipodi:nodetypes="sscccs" /><g
       id="link"
       transform="matrix(0.89938168,0,0,0.89938168,-0.49814503,1.7608207)"
       style="display:inline"><path
         id="path2"
         d="m 9.5,17.500651 c -3.5996391,-0.05097 -6.5,2.9 -6.5,6.5 0,3.6 2.9,6.5 6.5,6.5 0.6,0 1,-0.4 1,-1 0,-0.6 -0.4,-1 -1,-1 -2.5,0 -4.5,-2 -4.5,-4.5 0,-2.479879 1.9696066,-4.462303 4.4414062,-4.494141 2.5708338,0.03107 5.2028978,0.0059 7.3554688,0.0078 2.5,0 4.5,2 4.5,4.5 0,0.851987 -0.24715,1.636024 -0.652344,2.3125 h 2.22461 c 0.272441,-0.718532 0.427734,-1.496389 0.427734,-2.3125 0,-3.6 -2.900361,-6.550974 -6.5,-6.5 -0.459458,0.0065 -1.446355,0.0099 -2.298828,0.01172 C 12.631179,17.51903 10.49894,17.51479 9.5,17.500651 Z" /><path
         id="path2-9"
         d="m 24.296875,30.499999 c 3.599639,0.05097 6.5,-2.899999 6.5,-6.499999 0,-3.6 -2.9,-6.5 -6.5,-6.5 -0.6,0 -1,0.4 -1,1 0,0.6 0.4,1 1,1 2.5,0 4.5,2 4.5,4.5 0,2.479879 -1.969607,4.462303 -4.441406,4.494141 -2.570834,-0.03107 -5.202898,-0.0059 -7.355469,-0.0078 -2.5,0 -4.5,-2 -4.5,-4.5 0,-0.851987 0.24715,-1.636024 0.652344,-2.3125 h -2.22461 C 10.655293,22.392373 10.5,23.17023 10.5,23.986341 c 0,3.6 2.900361,6.550973 6.5,6.499999 0.459458,-0.0065 1.446355,-0.0099 2.298828,-0.01172 1.866868,0.007 3.999107,0.01124 4.998047,0.02538 z" /></g></g><circle
     style="fill:#000000"
     id="path304"
     cx="18.299999"
     cy="24.200001"
     r="1.5" /></svg>
