<?xml version="1.0" encoding="UTF-8" standalone="no"?>
<svg
   xmlns:dc="http://purl.org/dc/elements/1.1/"
   xmlns:cc="http://creativecommons.org/ns#"
   xmlns:rdf="http://www.w3.org/1999/02/22-rdf-syntax-ns#"
   xmlns:svg="http://www.w3.org/2000/svg"
   xmlns="http://www.w3.org/2000/svg"
   xmlns:sodipodi="http://sodipodi.sourceforge.net/DTD/sodipodi-0.dtd"
   xmlns:inkscape="http://www.inkscape.org/namespaces/inkscape"
   id="Icons"
   style="enable-background:new 0 0 32 32;"
   version="1.1"
   viewBox="0 0 32 32"
   xml:space="preserve"
   sodipodi:docname="iconfinder_6646343_crossed_editing_text_icon.svg"
   inkscape:version="1.0.2 (e86c870879, 2021-01-15, custom)"><metadata
     id="metadata9"><rdf:RDF><cc:Work
         rdf:about=""><dc:format>image/svg+xml</dc:format><dc:type
           rdf:resource="http://purl.org/dc/dcmitype/StillImage" /></cc:Work></rdf:RDF></metadata><defs
     id="defs7" /><sodipodi:namedview
     pagecolor="#ffffff"
     bordercolor="#666666"
     borderopacity="1"
     objecttolerance="10"
     gridtolerance="10"
     guidetolerance="10"
     inkscape:pageopacity="0"
     inkscape:pageshadow="2"
     inkscape:window-width="1920"
     inkscape:window-height="1137"
     id="namedview5"
     showgrid="false"
     inkscape:zoom="21.434174"
     inkscape:cx="18.44816"
     inkscape:cy="16.662224"
     inkscape:window-x="-8"
     inkscape:window-y="-8"
     inkscape:window-maximized="1"
     inkscape:current-layer="Icons" /><path
     d="m 15.499689,16.000311 c -0.08126,-2.498679 -2,-4.5 -4.5,-4.5 -2.5,0 -4.5,2 -4.5,4.5 0,2.5 2,4.5 4.5,4.5 0.6,0 1,0.4 1,1 0,0.6 -0.4,1 -1,1 -3.6,0 -6.5,-2.9 -6.5,-6.5 0,-3.6 2.9003609,-6.550974 6.5,-6.5 5.15996,0.07307 6.334108,4.839488 6.5,6.5 0.248524,2.487617 2,4.5 4.5,4.5 2.5,0 4.5,-2 4.5,-4.5 0,-2.5 -2,-4.5 -4.5,-4.5 -0.6,0 -1,-0.4 -1,-1 0,-0.6 0.4,-1 1,-1 3.6,0 6.5,2.9 6.5,6.5 0,3.6 -2.900015,6.510563 -6.5,6.5 -3.460136,-0.01015 -6.380762,-2.833346 -6.5,-6.5 z"
     id="path2"
     sodipodi:nodetypes="sssssssssssssssss" /></svg>
