<?xml version="1.0" encoding="UTF-8" standalone="no"?>
<svg
   xmlns:dc="http://purl.org/dc/elements/1.1/"
   xmlns:cc="http://creativecommons.org/ns#"
   xmlns:rdf="http://www.w3.org/1999/02/22-rdf-syntax-ns#"
   xmlns:svg="http://www.w3.org/2000/svg"
   xmlns="http://www.w3.org/2000/svg"
   xmlns:sodipodi="http://sodipodi.sourceforge.net/DTD/sodipodi-0.dtd"
   xmlns:inkscape="http://www.inkscape.org/namespaces/inkscape"
   id="Icons"
   style="enable-background:new 0 0 32 32;"
   version="1.1"
   viewBox="0 0 32 32"
   xml:space="preserve"
   sodipodi:docname="numberList_fixed.svg"
   inkscape:version="1.0.2 (e86c870879, 2021-01-15, custom)"><metadata
   id="metadata14"><rdf:RDF><cc:Work
       rdf:about=""><dc:format>image/svg+xml</dc:format><dc:type
         rdf:resource="http://purl.org/dc/dcmitype/StillImage" /><dc:title></dc:title></cc:Work></rdf:RDF></metadata><defs
   id="defs12" /><sodipodi:namedview
   pagecolor="#ffffff"
   bordercolor="#666666"
   borderopacity="1"
   objecttolerance="10"
   gridtolerance="10"
   guidetolerance="10"
   inkscape:pageopacity="0"
   inkscape:pageshadow="2"
   inkscape:window-width="1920"
   inkscape:window-height="1137"
   id="namedview10"
   showgrid="false"
   inkscape:zoom="11.313709"
   inkscape:cx="3.9844501"
   inkscape:cy="23.673039"
   inkscape:window-x="-8"
   inkscape:window-y="-8"
   inkscape:window-maximized="1"
   inkscape:current-layer="Icons" />
	<g
   id="g14">
		<path
   d="M 11,8 H 29 C 29.6,8 30,7.6 30,7 30,6.4 29.6,6 29,6 H 11 c -0.6,0 -1,0.4 -1,1 0,0.6 0.4,1 1,1 z"
   id="path2" /><path
   d="m 11,17 h 11 c 0.6,0 1,-0.4 1,-1 0,-0.6 -0.4,-1 -1,-1 H 11 c -0.6,0 -1,0.4 -1,1 0,0.6 0.4,1 1,1 z"
   id="path4" /><path
   d="M 29,24 H 11 c -0.6,0 -1,0.4 -1,1 0,0.6 0.4,1 1,1 h 18 c 0.6,0 1,-0.4 1,-1 0,-0.6 -0.4,-1 -1,-1 z"
   id="path6" />
	 </g>
	 <path
   d="m 6.4757322,4.359686 5.075e-4,5.4068222 c 6.1e-6,0.065285 -0.1097372,0.3071808 -0.3159919,0.3403088 -0.13472,0.02164 -0.4749577,0.01037 -0.5477828,0.01037 -0.137993,0 -0.312487,-0.2289317 -0.312487,-0.3671746 L 5.315603,5.5178408 4.4220995,6.2785327 C 4.175912,6.3879964 3.97105,6.0247152 3.873305,5.9269702 c -0.09774,-0.097745 -0.09774,-0.2557361 0,-0.3534808 L 5.373224,4.0735706 c 0.0715,-0.071746 0.2373347,-0.093495 0.3740485,-0.09331 0.1440212,0.00725 0.4901785,-0.06532 0.685491,0.1841125"
   id="number-one"
   sodipodi:nodetypes="cssssccccccc" />
	 <path
   d="M 5.2709999,18.007818 6.74375,17.992205 c 0.072724,-7.71e-4 0.209407,0.119725 0.2828466,0.280163 0.061845,0.135111 0.014028,0.474758 0.014028,0.54015 C 7.040625,18.95075 6.8895625,19 6.7515625,19 H 4.15 C 4.012,19 3.9,18.88825 3.9,18.75 c 0,-0.5375 0.24375,-0.84025 0.30975,-0.91275 0.4350094,-0.666293 1.517405,-2.248012 1.622875,-2.404625 0.0035,-0.0038 0.2282015,-0.181487 0.2282015,-0.812987 0,-0.452063 -0.3297858,-0.642333 -0.59375,-0.654354 -0.4852088,-0.0221 -0.509153,0.275055 -0.6764515,0.550341 C 4.75274,14.577965 4.5023382,14.719217 4.3868522,14.752556 4.2834703,14.782401 4.215184,14.75 4.15,14.75 4.012,14.75 3.9,14.63825 3.9,14.5 c 0,-0.82725 0.67275,-1.578125 1.5,-1.578125 0.406771,0 0.8958679,0.144981 1.208559,0.470134 0.3232288,0.33611 0.463316,0.859387 0.463316,1.279866 0,0.784 -0.3455937,1.310781 -0.4318437,1.402031 l -1.3690314,1.933912"
   id="number-two"
   sodipodi:nodetypes="cssssssccssssssssscc" />
	 <path
   d="M 6.9,26.5 C 6.9,27.32725 6.22725,28 5.4,28 4.57275,28 3.9,27.32725 3.9,26.5 c 0,-0.13825 0.2224854,-0.338388 0.3604854,-0.338388 0.138,0 0.5209867,0.11175 0.5209867,0.25 0,0.317125 0.1607779,0.581361 0.5482154,0.589173 0.3561151,0.0072 0.6898691,0.03493 0.703125,-0.688285 0.00596,-0.324977 0.046694,-0.645987 -0.5048064,-0.645987 -0.0835,0 -0.3363811,-0.169201 -0.3828811,-0.238701 -0.0465,-0.06975 -0.1096875,-0.189 -0.077438,-0.26625 l 0.7101286,-2.280387 -1.6333399,0 c -0.067233,0 -0.2329491,-0.200437 -0.2395046,-0.30876 C 3.8973047,22.445737 3.9,22.320895 3.9,22.25 3.9,22.11175 4.012,22 4.15,22 h 2.5 c 0.0835,0 0.1615,0.04175 0.208,0.11125 0.0465,0.06975 0.038427,0.450536 0.00618,0.527786 L 6.0662166,25.038424 C 6.7214666,25.198924 6.9,25.796 6.9,26.5"
   id="number-three"
   sodipodi:nodetypes="cssssssscccssssscccc" />
</svg>
