<?xml version="1.0" encoding="UTF-8" standalone="no"?>
<svg
   xmlns:dc="http://purl.org/dc/elements/1.1/"
   xmlns:cc="http://creativecommons.org/ns#"
   xmlns:rdf="http://www.w3.org/1999/02/22-rdf-syntax-ns#"
   xmlns:svg="http://www.w3.org/2000/svg"
   xmlns="http://www.w3.org/2000/svg"
   xmlns:sodipodi="http://sodipodi.sourceforge.net/DTD/sodipodi-0.dtd"
   xmlns:inkscape="http://www.inkscape.org/namespaces/inkscape"
   id="Icons"
   style="enable-background:new 0 0 32 32;"
   version="1.1"
   viewBox="0 0 32 32"
   xml:space="preserve"
   sodipodi:docname="save.svg"
   inkscape:version="1.0.2 (e86c870879, 2021-01-15, custom)"><metadata
     id="metadata17"><rdf:RDF><cc:Work
         rdf:about=""><dc:format>image/svg+xml</dc:format><dc:type
           rdf:resource="http://purl.org/dc/dcmitype/StillImage" /></cc:Work></rdf:RDF></metadata><defs
     id="defs15" /><sodipodi:namedview
     pagecolor="#ffffff"
     bordercolor="#666666"
     borderopacity="1"
     objecttolerance="10"
     gridtolerance="10"
     guidetolerance="10"
     inkscape:pageopacity="0"
     inkscape:pageshadow="2"
     inkscape:window-width="1920"
     inkscape:window-height="1137"
     id="namedview13"
     showgrid="false"
     inkscape:zoom="45.254834"
     inkscape:cx="18.874556"
     inkscape:cy="13.033333"
     inkscape:window-x="-8"
     inkscape:window-y="-8"
     inkscape:window-maximized="1"
     inkscape:current-layer="Icons"
     inkscape:document-rotation="0" /><g
     id="square"
     inkscape:label="square"><path
       d="M 28,29 H 4 C 3.4,29 3,28.6 3,28 3,27.4 3.4,27 4,27 h 24 c 0.6,0 1,0.4 1,1 0,0.6 -0.4,1 -1,1 z"
       id="path8" /><path
       id="path8-6"
       style="display:inline"
       d="M 27,11.6875 V 28 c 0,0.6 0.4,1 1,1 0.6,0 1,-0.4 1,-1 V 11.6875 Z" /><path
       d="M 3,28.000001 V 4 C 3,3.4 3.4,3 4,3 4.6,3 5,3.4 5,4 v 24.000001 c 0,0.6 -0.4,1 -1,1 -0.6,0 -1,-0.4 -1,-1 z"
       id="path8-6-4" /><path
       id="path8-0"
       style="display:inline"
       d="M 4,3 C 3.4,3 3,3.4 3,4 3,4.6 3.4,5 4,5 H 20.53125 V 3 Z" /><path
       id="path8-0-7"
       d="M 17.785156,3 29,14.216797 V 11.386719 L 20.613281,3 Z" /></g><g
     id="bottom"><path
       id="path8-0-6"
       d="m 10,16 v 2 h 12 v -2 z" /><path
       id="path8-6-4-4-6"
       d="m 22,16 c -0.6,0 -1,0.4 -1,1 v 12 h 2 V 17 c 0,-0.6 -0.4,-1 -1,-1 z" /><path
       id="path8-6-4-4"
       d="m 10,16 c -0.6,0 -1,0.4 -1,1 v 12 h 2 V 17 c 0,-0.6 -0.4,-1 -1,-1 z" /></g><path
     id="path8-5"
     d="M 9 3 L 9 10 C 9 10.6 9.4 11 10 11 L 10.8125 11 L 17.5 11 L 19 11 C 19.6 11 20 10.6 20 10 C 20 9.4 19.6 9 19 9 L 17.5 9 L 11 9 L 11 3 L 9 3 z " /></svg>
