<?xml version="1.0" encoding="UTF-8" standalone="no"?>
<svg
   xmlns:dc="http://purl.org/dc/elements/1.1/"
   xmlns:cc="http://creativecommons.org/ns#"
   xmlns:rdf="http://www.w3.org/1999/02/22-rdf-syntax-ns#"
   xmlns:svg="http://www.w3.org/2000/svg"
   xmlns="http://www.w3.org/2000/svg"
   xmlns:sodipodi="http://sodipodi.sourceforge.net/DTD/sodipodi-0.dtd"
   xmlns:inkscape="http://www.inkscape.org/namespaces/inkscape"
   id="Icons"
   style="enable-background:new 0 0 32 32;"
   version="1.1"
   viewBox="0 0 32 32"
   xml:space="preserve"
   sodipodi:docname="signature.svg"
   inkscape:version="1.0.2 (e86c870879, 2021-01-15, custom)"><metadata
     id="metadata17"><rdf:RDF><cc:Work
         rdf:about=""><dc:format>image/svg+xml</dc:format><dc:type
           rdf:resource="http://purl.org/dc/dcmitype/StillImage" /></cc:Work></rdf:RDF></metadata><defs
     id="defs15" /><sodipodi:namedview
     pagecolor="#ffffff"
     bordercolor="#666666"
     borderopacity="1"
     objecttolerance="10"
     gridtolerance="10"
     guidetolerance="10"
     inkscape:pageopacity="0"
     inkscape:pageshadow="2"
     inkscape:window-width="1920"
     inkscape:window-height="1137"
     id="namedview13"
     showgrid="false"
     inkscape:zoom="10.717087"
     inkscape:cx="0.47141095"
     inkscape:cy="6.9374753"
     inkscape:window-x="-8"
     inkscape:window-y="-8"
     inkscape:window-maximized="1"
     inkscape:current-layer="Icons" /><path
     d="M 24.769231,25.5 H 7.2307693 C 6.7923077,25.5 6.5,25.1 6.5,24.5 c 0,-0.6 0.2923077,-1 0.7307693,-1 H 24.769231 c 0.438462,0 0.730769,0.4 0.730769,1 0,0.6 -0.292307,1 -0.730769,1 z"
     id="line"
     style="stroke-width:0.85485" /><path
     id="pen"
     d="m 22.284251,12 c -0.353176,0 -0.706008,0.132613 -0.970889,0.397495 l -0.574256,0.573393 3.267049,3.267049 0.61823,-0.61823 c 0.529763,-0.529764 0.484926,-1.368039 -0.04483,-1.897803 L 23.255139,12.397495 C 22.990257,12.132613 22.681573,12 22.284251,12 Z m -2.163375,1.589118 -4.723381,4.723382 c -0.08829,0.08829 -0.132786,0.177277 -0.132786,0.265571 L 15,21.491599 c 0,0.132441 0.04449,0.264364 0.132786,0.352658 0.08829,0.08829 0.176243,0.132786 0.308684,0.132786 h 0.04397 l 2.913527,-0.26471 c 0.08829,0 0.221425,-0.04449 0.265572,-0.132786 l 4.723382,-4.72338 z"
     style="stroke-width:0.44147" /><g
     id="square"><path
       d="M 28,29 H 4 C 3.4,29 3,28.6 3,28 3,27.4 3.4,27 4,27 h 24 c 0.6,0 1,0.4 1,1 0,0.6 -0.4,1 -1,1 z"
       id="path8" /><path
       d="M 27,28 V 3.9999999 c 0,-0.6 0.4,-1 1,-1 0.6,0 1,0.4 1,1 V 28 c 0,0.6 -0.4,1 -1,1 -0.6,0 -1,-0.4 -1,-1 z"
       id="path8-6" /><path
       d="M 3,28.000001 V 4 C 3,3.4 3.4,3 4,3 4.6,3 5,3.4 5,4 v 24.000001 c 0,0.6 -0.4,1 -1,1 -0.6,0 -1,-0.4 -1,-1 z"
       id="path8-6-4" /><path
       d="M 28,5 H 4 C 3.4,5 3,4.6 3,4 3,3.4 3.4,3 4,3 h 24 c 0.6,0 1,0.4 1,1 0,0.6 -0.4,1 -1,1 z"
       id="path8-0" /></g></svg>
